<svg id="Layer_1" data-name="Layer 1" xmlns="http://www.w3.org/2000/svg" xmlns:xlink="http://www.w3.org/1999/xlink" viewBox="0 0 851 347"><defs><style>.cls-1{fill:url(#linear-gradient);}</style><linearGradient id="linear-gradient" x1="103.79" y1="119.65" x2="881.03" y2="282.36" gradientUnits="userSpaceOnUse"><stop offset="0" stop-color="#8bc2db"/><stop offset="1" stop-color="#266178"/></linearGradient></defs><path class="cls-1" d="M817,275.52a6.46,6.46,0,0,1-3.5,1.12,53.63,53.63,0,0,1-14.54.13,39.38,39.38,0,0,1-6.48-1.62c-8-2.63-16-5.37-23.49-9.42-4.88-2.64-9-6.37-13.16-9.91-2.44-2-5-4-7.25-6.22a151.88,151.88,0,0,1-10.83-12.14c-6-7.19-13.34-12.49-21.41-17a157.61,157.61,0,0,0-17.65-7.94c-8.22-3.33-15.41-8-21-14.91-5.15-6.3-10.75-12.2-16.13-18.29a60.57,60.57,0,0,1-6-8.64c-.43,3,.17,5.56.46,8.06a18.81,18.81,0,0,0,2,6.06c5.69,11.51,11.5,23,18.07,34,1.79,3,3.78,5.9,5.66,8.86a16.79,16.79,0,0,1,1.79,3.63c.12.36.24.81-.13,1.12a1.07,1.07,0,0,1-1.13,0,9.63,9.63,0,0,1-3.2-2.46,105,105,0,0,1-6.9-8.56c-2.85-3.9-5.64-7.84-8.78-11.66a18,18,0,0,0,.29,2.45,6.77,6.77,0,0,1-.24,3.52c-.37,1.39-1.44,1.63-2.52.65a3.35,3.35,0,0,1-.94-1.64c-1-3.43-3-6.29-5.06-9.14-3.5-4.85-5.48-10.41-6.89-16.16-1.62-6.57-3.65-13-5.85-19.4a50.35,50.35,0,0,1-2.87-17.58c.14-8.33-2.74-15.75-7.24-22.62a1.78,1.78,0,0,0-.32-.35s-.14,0-.35-.06c-.35,8.18-4.19,14.82-9.33,20.85a23.25,23.25,0,0,1-7.41,5.58c-3,1.55-6.24,2.87-9,5a1.37,1.37,0,0,1-.63.33c-3.12.38-3.25,2.84-3.47,5.11-.21,2.07.36,4.11.59,6.17A24,24,0,0,1,600,186.7a11.21,11.21,0,0,1-2.05,2.93c-.57.57-1.21,1.25-2,.88s-.55-1.37-.43-2.12a11.33,11.33,0,0,1,.53-2.08,28.38,28.38,0,0,0,1.5-8.17,48,48,0,0,0-.59-6.62,29.91,29.91,0,0,1-.06-7.62,13,13,0,0,1,5.13-8.62,52.92,52.92,0,0,0,12.82-14c1.57-2.41,3.16-4.8,4.71-7.22a14.51,14.51,0,0,0,1.43-13.24c-1.69-4.81-3.57-9.56-5-14.46A93.3,93.3,0,0,1,613,92.58c-.16-1.25-.59-2.46-.87-3.7-1-4.5-4.34-6.95-8.15-8.79-2.86-1.38-5.44-.28-7.19,2.8a42,42,0,0,1-3.93,6c-2.81,3.46-6.43,5.94-10,8.45-6.09,4.23-12.25,8.36-18.32,12.63a38.24,38.24,0,0,0-8.66,8.19c-3.18,4.24-7.64,7-12.1,9.61-2.74,1.63-5.55,3.15-8.3,4.76-1.55.91-1.65,1.25-.84,2.86a30,30,0,0,0,7.15,8.91c5,4.48,9.83,9.1,13.16,15.05a114.62,114.62,0,0,1,5.64,12.91,70.59,70.59,0,0,0,7.75,15.06,65.15,65.15,0,0,0,7,7.87,72.76,72.76,0,0,1,9.28,10.63c2.91,4.33,4.83,9.15,6.77,13.95,2.58,6.35,5,12.78,8.37,18.77,2.85,5.05,6.3,9.62,11.12,12.95,2.55,1.76,5.35,3.17,8,4.8a49,49,0,0,1,9.75,7.31,17.44,17.44,0,0,1,3.57,4.75,7.49,7.49,0,0,0,4.66,4.18c4.28,1.43,7.45,4.53,10.85,7.28a.72.72,0,0,1,.18.94c-1.2.46-2.43,0-3.64-.15-3.07-.47-6.16-.88-9.19-1.53a23.91,23.91,0,0,1-13.77-8.94c-.85-1-1.76-2-2.64-3.08a23.82,23.82,0,0,0-9.77-6.68c-5.56-2.17-9.25-6.37-12.07-11.44-1.28-2.3-2.6-4.59-3.8-6.92a48,48,0,0,0-8.3-11.05,157.34,157.34,0,0,0-16.23-14.84c-6.28-4.92-10.25-11.56-13-18.93A87.42,87.42,0,0,0,539,169.07c-7-8-13.78-16.33-21.09-24.13a116.9,116.9,0,0,0-20-17.35c-.46-.31-.94-.61-1.43-.88-.11-.06-.28,0-.58,0a48.51,48.51,0,0,1,1.3,15.4c-.35,5-.36,10-.44,15.06A33.79,33.79,0,0,0,501.51,175a45.25,45.25,0,0,1,4.62,10.22,40.16,40.16,0,0,0,3.87,8.46,74,74,0,0,1,7.27,19.89,4.44,4.44,0,0,1-.17,3.13c-.67,0-.81-.37-1-.7q-9-15.94-18-31.87a87.37,87.37,0,0,1-8.05-20.4c-1.95-7.14-3.67-14.35-5.67-21.48-1.6-5.67-3.72-11.18-5-16.93a51.45,51.45,0,0,1-1-17.54c.6-5.13.76-10.31,1.25-15.45.27-2.87.21-5.73.31-8.6.11-3.12-.45-6.2-.52-9.3a7.67,7.67,0,0,0-.46-1.54,53.07,53.07,0,0,0-4.89,6.44,130.77,130.77,0,0,1-11.22,14.26c-1.14,1.22-2.41,2.33-3.66,3.44-6.4,5.67-10.69,12.8-14.17,20.48-2.86,6.32-5.48,12.75-8.61,18.94a90.14,90.14,0,0,1-13.77,19.77c-11.05,12.23-20.54,25.58-29.39,39.44A145.21,145.21,0,0,1,379.66,214c-2.76,3.09-5.59,6.14-8.5,9.1q-7.73,7.88-15.6,15.61c-6.84,6.71-13.84,13.25-20.89,19.74-6.58,6-13.1,12.14-19.78,18.08a172.64,172.64,0,0,1-32.47,23.11c-6.1,3.3-11.83,7.24-18,10.35a60.35,60.35,0,0,1-11.69,4.79,10.91,10.91,0,0,1-2.61.32,1.6,1.6,0,0,1-1.75-1.31,1.66,1.66,0,0,1,1-1.76,9,9,0,0,1,2.44-1c5.55-1.41,10.51-4.13,15.42-7,10.12-5.85,19.19-13.17,28.3-20.43a227.85,227.85,0,0,0,21.9-20c6.48-6.73,12.75-13.65,19.25-20.36,4.39-4.53,8.9-9,13.45-13.33,9.44-9.07,19.05-18,27-28.43,4.89-6.41,9.07-13.32,13.61-20,7.83-11.44,15.85-22.73,25-33.2a2.27,2.27,0,0,0,.69-1.35,34.33,34.33,0,0,1-8.08-.88c-9.82-2.61-18.26-7.43-24.56-15.59a21.84,21.84,0,0,1-3.87-8.66,29.23,29.23,0,0,0-8.29-14.54A139.85,139.85,0,0,0,361,97.31c-.36-.29-.75-.54-1.55-1.11,1.28,2.51,2.42,4.57,3.39,6.71a23.55,23.55,0,0,1,1.73,12.35,86.05,86.05,0,0,0-.24,12.44c.33,7.81,2,15.43,3.15,23.13,1,6.75,2,13.5,3,20.26a11,11,0,0,1,0,4.08c-1.69-.23-2.49-1.48-3.4-2.55a68.88,68.88,0,0,1-5.63-8.31,25,25,0,0,1-4-11.84c-.25-4.06-1.57-7.94-2.75-11.82a37.25,37.25,0,0,1-1.5-10.6c0-3,0-6.07,0-9.11a52.46,52.46,0,0,0-4.89-22.69C345.79,92.67,343,87.18,339,82.42c-2.49-3-5.21-5.62-8.92-7a12.13,12.13,0,0,0-11.62,1.33,64.85,64.85,0,0,0-5.72,4.72,22,22,0,0,1-7.37,4.35,33.26,33.26,0,0,0-9.8,5.38C288.87,96.32,282,101.25,275.78,107c-7.32,6.74-13.8,14.15-18.45,23.06-2.48,4.74-4.74,9.57-7.18,14.33a85.32,85.32,0,0,1-12.85,18c-7.64,8.47-15.67,16.58-23.15,25.21a87.67,87.67,0,0,1-12.1,11.23c-6.69,5.28-13.34,10.62-20,15.9a14.16,14.16,0,0,1-4.69,2.71c-.56-1.3.48-1.9,1-2.54,1.86-2.18,3.83-4.28,5.82-6.35,3.15-3.29,6.26-6.62,9.55-9.76,6.77-6.47,12.62-13.73,18.45-21,2.81-3.5,5.72-6.93,8.44-10.6-.92.55-1.86,1.08-2.76,1.67-8.82,5.78-18.07,10.79-27.4,15.66-11.59,6.06-23.36,11.77-34.5,18.67a303.75,303.75,0,0,0-37.9,27.54c-4.84,4.15-9.74,8.21-14.92,11.95a63.11,63.11,0,0,1-24.76,10.9c-14.06,2.81-28.07,5.84-42.08,8.89A103.34,103.34,0,0,1,25.67,264a3.31,3.31,0,0,1-2.8-.52c.17-1.18,1.18-1.59,2.07-2a83,83,0,0,1,13.2-5c13.17-4.05,26.45-7.7,39.7-11.46a63.9,63.9,0,0,0,8.07-3,25.69,25.69,0,0,0,10.45-8.23c6.1-8.24,13.89-14.44,22.52-19.72a186.23,186.23,0,0,0,23.57-17.58c6.14-5.24,12.56-10.07,19.9-13.57A99.91,99.91,0,0,1,177,177.78a68.36,68.36,0,0,0,19.4-9.07c6.66-4.54,13.46-8.89,20-13.52,10-7.08,18.62-15.75,26.41-25.2,5.82-7.07,11.51-14.26,17.42-21.26a246,246,0,0,1,18.06-19.18A197,197,0,0,1,304.07,69,68.42,68.42,0,0,0,316,59a22.93,22.93,0,0,1,7.1-5.2,47.12,47.12,0,0,0,12-8.14,12.34,12.34,0,0,1,2.09-1.58,4.77,4.77,0,0,1,4.79-.16,10.46,10.46,0,0,1,2.76,1.86c6.25,6.28,13.14,11.87,19.6,17.93a117.49,117.49,0,0,1,14.75,16.9,113.53,113.53,0,0,1,11.94,20.14,111.68,111.68,0,0,1,4.34,12.9c2.8,9.14,9.05,14.38,18.09,16.64a16.78,16.78,0,0,0,5.39.62,2.57,2.57,0,0,0,2.36-1.49c.92-1.62,1.1-3.48,1.85-5.16a71.41,71.41,0,0,1,11.54-17.49A93,93,0,0,0,445,91.65a63.13,63.13,0,0,1,11.79-15.58c4.45-4.13,8.73-8.45,11.58-13.92,1.8-3.47,3.55-7,5.39-10.42a52.6,52.6,0,0,1,9.36-13.22c.17-.17.34-.35.51-.51,2.65-2.41,5.51-2.24,7.21.85,2.86,5.19,6.51,9.85,9.48,14.95,2.1,3.62,3.14,7.63,4.1,11.67,1.33,5.66,2.38,11.39,4.62,16.8a98.47,98.47,0,0,0,7.6,14.09,149.79,149.79,0,0,1,11.82,23.2c.8,2,.78,1.79,2.86,1,6.89-2.65,12.69-6.93,18.26-11.65,5-4.28,10.66-7.86,15.55-12.32,6.43-5.87,13.26-11.24,19.93-16.8,2.84-2.37,4.92-5.44,7.07-8.41a55.71,55.71,0,0,1,5.92-7.19c5.09-5,10.29-5.34,16-1,3.9,2.91,6.78,6.72,9.49,10.67A112.91,112.91,0,0,1,631,86.41c1.6,3.13,3.13,6.3,5,9.28,3.75,6.06,9,10.75,14.52,15.11,4.58,3.61,9.26,7.08,14.15,10.24s8.41,7.08,9.64,12.82c.5,2.34.89,4.7,1.22,7.06a100.9,100.9,0,0,0,1.71,10.79c1.69,6.85,5.38,12.56,10,17.78,4.23,4.81,9.1,8.95,13.74,13.33,3.55,3.34,6.92,6.87,10.24,10.44a93.78,93.78,0,0,0,11.38,10.55c8.69,6.65,15.22,15.14,21.39,24A159.64,159.64,0,0,0,761.07,249a75.17,75.17,0,0,0,22,15c10.38,4.84,21.31,8,32.4,10.73C816,274.86,816.63,274.76,817,275.52Z"/></svg>